{"title":"The Purge 2013 WEBRip R6 XViD AC3-W00D","uid":8597817,"size":727905328,"categoryP":"video","categoryS":"movies","magnet":"?xt=urn:btih:08b8d18c1b4359dd87ab0dbc65f43e4e6c6f7573&amp;dn=The+Purge+2013+WEBRip+R6+XViD+AC3-W00D&amp;tr=udp%3A%2F%2Ftracker.openbittorrent.com%3A80&amp;tr=udp%3A%2F%2Fopen.demonii.com%3A1337&amp;tr=udp%3A%2F%2Ftracker.coppersurfer.tk%3A6969&amp;tr=udp%3A%2F%2Fexodus.desync.com%3A6969","seeders":2,"leechers":0,"uploader":"HeroMaster","files":-1,"time":1371802230,"description":"The Purge 2013 WEBRip R6 XViD AC3-W00D\n\n\nIMDB: http://www.imdb.com/title/tt2184339/\n\n\nGeneral Information\nSample Included......: Yes\nSource...............: RMVB Chinese Low Bitrate\nContainer............: AVi\n\nVideo\nID : 0\nFormat : MPEG-4 Visual\nFormat profile : Advanced Simple@L5\nFormat settings, BVOP : 2\nFormat settings, QPel : No\nFormat settings, GMC : No warppoints\nFormat settings, Matrix : Default (H.263)\nCodec ID : XVID\nCodec ID/Hint : XviD\nDuration : 1h 25mn\nBit rate : 1 002 Kbps\nWidth : 704 pixels\nHeight : 304 pixels\nDisplay aspect ratio : 2.35:1\nFrame rate : 23.976 fps\nColor space : YUV\nChroma subsampling : 4:2:0\nBit depth : 8 bits\nScan type : Progressive\nCompression mode : Lossy\nBits/(Pixel*Frame) : 0.195\nStream size : 611 MiB (88%)\nWriting library : XviD 1.2.1 (UTC 2008-12-04)\n\nAudio\nID : 1\nFormat : AC-3\nFormat/Info : Audio Coding 3\nMode extension : CM (complete main)\nFormat settings, Endianness : Big\nCodec ID : 2000\nDuration : 1h 25mn\nBit rate mode : Constant\nBit rate : 128 Kbps\nChannel(s) : 2 channels\nChannel positions : Front: L R\nSampling rate : 48.0 KHz\nBit depth : 16 bits\nCompression mode : Lossy\nStream size : 78.1 MiB (11%)\nAlignment : Aligned on interleaves\nInterleave, duration : 64 ms (1.53 video frames)\nInterleave, preload duration : 192 ms\nTitle : The Purge 2013 R6 webrip\n\n\nPoster:\n\n &lt;a href=&quot;\nhttp://i.imgur.com/hscUZbl.jpg&quot; rel=&quot;nofollow&quot; target=&quot;_NEW&quot;&gt;\nhttp://i.imgur.com/hscUZbl.jpg&lt;/a&gt;\n\n\nScreenshots:\n\n &lt;a href=&quot;\nhttp://i.imgur.com/Hv1fblZ.jpg&quot; rel=&quot;nofollow&quot; target=&quot;_NEW&quot;&gt;\nhttp://i.imgur.com/Hv1fblZ.jpg&lt;/a&gt;\n\n\nSEED AND ENJOY!","torrent":{"xt":"urn:btih:08b8d18c1b4359dd87ab0dbc65f43e4e6c6f7573","amp;dn":"The+Purge+2013+WEBRip+R6+XViD+AC3-W00D","amp;tr":["udp%3A%2F%2Ftracker.openbittorrent.com%3A80","udp%3A%2F%2Fopen.demonii.com%3A1337","udp%3A%2F%2Ftracker.coppersurfer.tk%3A6969","udp%3A%2F%2Fexodus.desync.com%3A6969"],"infoHash":"08b8d18c1b4359dd87ab0dbc65f43e4e6c6f7573","infoHashBuffer":{"type":"Buffer","data":[8,184,209,140,27,67,89,221,135,171,13,188,101,244,62,78,108,111,117,115]},"announce":[],"urlList":[]}}